<mxfile host="65bd71144e">
    <diagram id="j1OlY0PBuMlGE5ktmqYf" name="Page-1">
        <mxGraphModel dx="1367" dy="603" grid="1" gridSize="10" guides="1" tooltips="1" connect="1" arrows="1" fold="1" page="1" pageScale="1" pageWidth="850" pageHeight="1100" math="0" shadow="0">
            <root>
                <mxCell id="0"/>
                <mxCell id="1" parent="0"/>
                <mxCell id="2" value="" style="rounded=1;whiteSpace=wrap;html=1;" vertex="1" parent="1">
                    <mxGeometry x="100" y="87.5" width="520" height="440" as="geometry"/>
                </mxCell>
                <mxCell id="3" value="&lt;b&gt;&lt;font style=&quot;font-size: 18px;&quot;&gt;Jenkins&amp;nbsp;&lt;/font&gt;&lt;/b&gt;" style="rounded=1;whiteSpace=wrap;html=1;" vertex="1" parent="1">
                    <mxGeometry x="220" y="205" width="160" height="205" as="geometry"/>
                </mxCell>
                <mxCell id="7" value="" style="line;strokeWidth=4;html=1;perimeter=backbonePerimeter;points=[];outlineConnect=0;fontSize=18;" vertex="1" parent="1">
                    <mxGeometry x="220" y="330" width="160" height="10" as="geometry"/>
                </mxCell>
                <mxCell id="9" value="" style="shape=singleArrow;direction=north;whiteSpace=wrap;html=1;fontSize=18;" vertex="1" parent="1">
                    <mxGeometry x="290" y="150" width="30" height="55" as="geometry"/>
                </mxCell>
            </root>
        </mxGraphModel>
    </diagram>
</mxfile>